<?xml version="1.0" encoding="UTF-8" standalone="no"?>
<!DOCTYPE svg PUBLIC "-//W3C//DTD SVG 1.1//EN"
 "http://www.w3.org/Graphics/SVG/1.1/DTD/svg11.dtd">
<!-- Generated by graphviz version 2.40.1 (20161225.0304)
 -->
<!-- Title: SIR Pages: 1 -->
<svg width="242pt" height="44pt"
 viewBox="0.00 0.00 242.00 44.00" xmlns="http://www.w3.org/2000/svg" xmlns:xlink="http://www.w3.org/1999/xlink">
<g id="graph0" class="graph" transform="scale(1 1) rotate(0) translate(4 40)">
<title>SIR</title>
<polygon fill="#ffffff" stroke="transparent" points="-4,4 -4,-40 238,-40 238,4 -4,4"/>
<!-- S -->
<g id="node1" class="node">
<title>S</title>
<polygon fill="#eeeeee" stroke="#000000" points="54,-36 0,-36 0,0 54,0 54,-36"/>
<text text-anchor="middle" x="27" y="-13.8" font-family="Helvetica,sans-Serif" font-size="14.00" fill="#000000">S</text>
</g>
<!-- I -->
<g id="node2" class="node">
<title>I</title>
<polygon fill="#eeeeee" stroke="#000000" points="144,-36 90,-36 90,0 144,0 144,-36"/>
<text text-anchor="middle" x="117" y="-13.8" font-family="Helvetica,sans-Serif" font-size="14.00" fill="#000000">I</text>
</g>
<!-- S&#45;&gt;I -->
<g id="edge1" class="edge">
<title>S&#45;&gt;I</title>
<path fill="none" stroke="#000000" d="M54.003,-18C62.0277,-18 70.9665,-18 79.5309,-18"/>
<polygon fill="#000000" stroke="#000000" points="79.7051,-21.5001 89.705,-18 79.705,-14.5001 79.7051,-21.5001"/>
</g>
<!-- R -->
<g id="node3" class="node">
<title>R</title>
<polygon fill="#eeeeee" stroke="#000000" points="234,-36 180,-36 180,0 234,0 234,-36"/>
<text text-anchor="middle" x="207" y="-13.8" font-family="Helvetica,sans-Serif" font-size="14.00" fill="#000000">R</text>
</g>
<!-- I&#45;&gt;R -->
<g id="edge2" class="edge">
<title>I&#45;&gt;R</title>
<path fill="none" stroke="#000000" d="M144.003,-18C152.0277,-18 160.9665,-18 169.5309,-18"/>
<polygon fill="#000000" stroke="#000000" points="169.7051,-21.5001 179.705,-18 169.705,-14.5001 169.7051,-21.5001"/>
</g>
</g>
</svg>

