<?xml version="1.0" encoding="UTF-8" standalone="no"?>
<!DOCTYPE svg PUBLIC "-//W3C//DTD SVG 1.1//EN"
 "http://www.w3.org/Graphics/SVG/1.1/DTD/svg11.dtd">
<!-- Generated by graphviz version 2.40.1 (20161225.0304)
 -->
<!-- Title: SIR Pages: 1 -->
<svg width="265pt" height="44pt"
 viewBox="0.00 0.00 265.32 44.00" xmlns="http://www.w3.org/2000/svg" xmlns:xlink="http://www.w3.org/1999/xlink">
<g id="graph0" class="graph" transform="scale(1 1) rotate(0) translate(4 40)">
<title>SIR</title>
<polygon fill="#ffffff" stroke="transparent" points="-4,4 -4,-40 261.3212,-40 261.3212,4 -4,4"/>
<!-- S -->
<g id="node1" class="node">
<title>S</title>
<polygon fill="#eeeeee" stroke="#000000" points="54,-36 0,-36 0,0 54,0 54,-36"/>
<text text-anchor="middle" x="27" y="-13.8" font-family="Helvetica,sans-Serif" font-size="14.00" fill="#000000">S</text>
</g>
<!-- I -->
<g id="node2" class="node">
<title>I</title>
<polygon fill="#eeeeee" stroke="#000000" points="155.6606,-36 101.6606,-36 101.6606,0 155.6606,0 155.6606,-36"/>
<text text-anchor="middle" x="128.6606" y="-13.8" font-family="Helvetica,sans-Serif" font-size="14.00" fill="#000000">I</text>
</g>
<!-- S&#45;&gt;I -->
<g id="edge1" class="edge">
<title>S&#45;&gt;I</title>
<path fill="none" stroke="#000000" d="M54.2432,-18C65.5246,-18 78.7977,-18 90.9869,-18"/>
<polygon fill="#000000" stroke="#000000" points="91.3423,-21.5001 101.3422,-18 91.3422,-14.5001 91.3423,-21.5001"/>
<text text-anchor="middle" x="77.8303" y="-22.2" font-family="Times,serif" font-size="14.00" fill="#000000">β</text>
</g>
<!-- R -->
<g id="node3" class="node">
<title>R</title>
<polygon fill="#eeeeee" stroke="#000000" points="257.3212,-36 203.3212,-36 203.3212,0 257.3212,0 257.3212,-36"/>
<text text-anchor="middle" x="230.3212" y="-13.8" font-family="Helvetica,sans-Serif" font-size="14.00" fill="#000000">R</text>
</g>
<!-- I&#45;&gt;R -->
<g id="edge2" class="edge">
<title>I&#45;&gt;R</title>
<path fill="none" stroke="#000000" d="M155.9038,-18C167.1852,-18 180.4583,-18 192.6475,-18"/>
<polygon fill="#000000" stroke="#000000" points="193.0029,-21.5001 203.0028,-18 193.0028,-14.5001 193.0029,-21.5001"/>
<text text-anchor="middle" x="179.4909" y="-22.2" font-family="Times,serif" font-size="14.00" fill="#000000">γ</text>
</g>
</g>
</svg>

